<svg width="16" height="16" viewBox="0 0 16 16" fill="none" xmlns="http://www.w3.org/2000/svg">
<g clip-path="url(#clip0)">
<path d="M7.52747 0.195453L4.34213 3.38079C4.24893 3.47402 4.18546 3.5928 4.15974 3.7221C4.13403 3.8514 4.14723 3.98542 4.19768 4.10722C4.24813 4.22902 4.33355 4.33313 4.44316 4.40639C4.55277 4.47964 4.68163 4.51876 4.81347 4.51879H6.83213C6.87634 4.51879 6.91873 4.53635 6.94999 4.5676C6.98124 4.59886 6.9988 4.64125 6.9988 4.68545V15.0001C6.9988 15.2653 7.10416 15.5197 7.29169 15.7072C7.47923 15.8948 7.73358 16.0001 7.9988 16.0001C8.26402 16.0001 8.51837 15.8948 8.70591 15.7072C8.89344 15.5197 8.9988 15.2653 8.9988 15.0001V4.68545C8.9988 4.64125 9.01636 4.59886 9.04762 4.5676C9.07887 4.53635 9.12127 4.51879 9.16547 4.51879H11.1841C11.316 4.51876 11.4448 4.47964 11.5544 4.40639C11.664 4.33313 11.7495 4.22902 11.7999 4.10722C11.8504 3.98542 11.8636 3.8514 11.8379 3.7221C11.8121 3.5928 11.7487 3.47402 11.6555 3.38079L8.47013 0.195453C8.34512 0.0704718 8.17558 0.00026226 7.9988 0.00026226C7.82202 0.00026226 7.65249 0.0704718 7.52747 0.195453Z" fill="white"/>
</g>
<defs>
<clipPath id="clip0">
<rect width="16" height="16" fill="white" transform="translate(0.00012207 16.0001) rotate(-90)"/>
</clipPath>
</defs>
</svg>
