<svg width="16" height="16" viewBox="0 0 16 16" fill="none" xmlns="http://www.w3.org/2000/svg">
<g clip-path="url(#clip0)">
<path d="M8.47281 15.8048L11.6581 12.6195C11.7513 12.5262 11.8148 12.4074 11.8405 12.2781C11.8662 12.1488 11.853 12.0148 11.8026 11.893C11.7521 11.7712 11.6667 11.6671 11.5571 11.5939C11.4475 11.5206 11.3186 11.4815 11.1868 11.4815H9.16814C9.12394 11.4815 9.08155 11.4639 9.05029 11.4326C9.01903 11.4014 9.00147 11.359 9.00147 11.3148V1.00012C9.00147 0.734906 8.89612 0.480552 8.70858 0.293015C8.52104 0.105479 8.26669 0.00012207 8.00147 0.00012207C7.73626 0.00012207 7.4819 0.105479 7.29437 0.293015C7.10683 0.480552 7.00147 0.734906 7.00147 1.00012L7.00147 11.3148C7.00147 11.359 6.98391 11.4014 6.95266 11.4326C6.9214 11.4639 6.87901 11.4815 6.83481 11.4815H4.81614C4.68431 11.4815 4.55544 11.5206 4.44583 11.5939C4.33623 11.6671 4.2508 11.7712 4.20035 11.893C4.14991 12.0148 4.13671 12.1488 4.16242 12.2781C4.18813 12.4074 4.2516 12.5262 4.34481 12.6195L7.53014 15.8048C7.65516 15.9298 7.8247 16 8.00147 16C8.17825 16 8.34779 15.9298 8.47281 15.8048Z" fill="white"/>
</g>
<defs>
<clipPath id="clip0">
<rect width="16" height="16" fill="white" transform="translate(16.0001 0.00012207) rotate(90)"/>
</clipPath>
</defs>
</svg>
